<svg width="36" height="26" viewBox="0 0 36 26" fill="none" xmlns="http://www.w3.org/2000/svg">
<path d="M35.7394 12.0846C35.4859 10.3421 34.5807 8.81289 33.1685 7.74604L30.6701 5.86126C29.0769 4.65215 26.7595 4.97221 25.5284 6.53693L24.5508 7.74604L24.1163 0.526978L16.6572 0.95372L16.802 3.79867L19.4815 3.65642L8.00321 17.7389L7.967 17.7745C7.71354 18.0945 7.20661 18.1657 6.88073 17.9167L4.3823 16.032C3.5857 15.4274 3.04256 14.5739 2.93393 13.5782C2.7891 12.5825 3.04256 11.6223 3.65812 10.8399L9.05327 3.86979C9.30674 3.54974 9.77746 3.47861 10.1395 3.72755L13.3984 6.14575L15.1364 3.86979L11.8776 1.45159C10.2844 0.278044 7.967 0.562539 6.73589 2.16282L1.37694 9.09739C0.29067 10.4843 -0.180049 12.2268 0.0734148 13.9694C0.29067 15.7119 1.23211 17.2411 2.64426 18.3079L5.14269 20.1927C5.79445 20.6906 6.59105 20.9395 7.35145 20.9395C8.43772 20.9395 9.5602 20.4416 10.2844 19.517L11.262 18.3079L11.6603 25.5625L19.1194 25.1358L18.9746 22.2908L16.2951 22.4331L27.7734 8.35059L27.8096 8.31503C27.9182 8.13722 28.1355 8.03053 28.3165 8.03053C28.5338 7.99497 28.7148 8.06609 28.8959 8.17278L31.3943 10.0576C32.1909 10.6621 32.734 11.5156 32.8427 12.5113C32.9875 13.5071 32.734 14.4672 32.1185 15.2496L26.7595 22.1842C26.5061 22.5042 25.9991 22.5753 25.6733 22.3264L22.4144 19.9082L20.6402 22.1842L23.899 24.6024C24.5508 25.1002 25.3474 25.3492 26.1078 25.3492C27.2302 25.3492 28.3165 24.8513 29.0407 23.9267L34.3997 16.9921C35.5221 15.5341 35.9929 13.8271 35.7394 12.0846ZM11.3707 18.1657L21.5454 5.68345L21.6903 7.99497L24.4784 7.85272L14.2674 20.3349L14.1226 18.0234L11.3707 18.1657Z" fill="url(#paint0_linear)"/>
<defs>
<linearGradient id="paint0_linear" x1="4.91691" y1="45.3824" x2="35.4618" y2="17.8598" gradientUnits="userSpaceOnUse">
<stop stop-color="#87dce1"/>
<stop offset="0.934124" stop-color="#87dce1"/>
</linearGradient>
</defs>
</svg>
